<svg width="1414" height="1270" viewBox="0 0 1414 1270" fill="none" xmlns="http://www.w3.org/2000/svg">
  <g filter="url(#filter0_f_10_15)">
    <path
      d="M576.153 996C709.495 996 817.59 888.228 817.59 755.284C817.59 622.34 709.495 514.567 576.153 514.567C442.811 514.567 334.716 622.34 334.716 755.284C334.716 888.228 442.811 996 576.153 996Z"
      fill="#BFCC94" />
    <path
      d="M590.355 709.433C723.698 709.433 831.793 601.66 831.793 468.716C831.793 335.772 723.698 228 590.355 228C457.013 228 348.918 335.772 348.918 468.716C348.918 601.66 457.013 709.433 590.355 709.433Z"
      fill="#6600FF" />
    <path
      d="M893.335 968.355C1026.68 968.355 1134.77 860.582 1134.77 727.638C1134.77 594.694 1026.68 486.922 893.335 486.922C759.993 486.922 651.898 594.694 651.898 727.638C651.898 860.582 759.993 968.355 893.335 968.355Z"
      fill="#BFCC94" />
    <path
      d="M706.002 782.255C839.344 782.255 947.439 674.482 947.439 541.538C947.439 408.594 839.344 300.822 706.002 300.822C572.66 300.822 464.565 408.594 464.565 541.538C464.565 674.482 572.66 782.255 706.002 782.255Z"
      fill="#BFCC94" />
    <path
      d="M502.437 793.717C635.779 793.717 743.874 685.945 743.874 553.001C743.874 420.057 635.779 312.284 502.437 312.284C369.095 312.284 261 420.057 261 553.001C261 685.945 369.095 793.717 502.437 793.717Z"
      fill="#6600FF" />
    <path
      d="M671.511 900.927C804.853 900.927 912.948 793.155 912.948 660.211C912.948 527.267 804.853 419.494 671.511 419.494C538.169 419.494 430.074 527.267 430.074 660.211C430.074 793.155 538.169 900.927 671.511 900.927Z"
      fill="#BFCC94" />
  </g>
  <defs>
    <filter id="filter0_f_10_15" x="-61" y="-94" width="1517.77" height="1412" filterUnits="userSpaceOnUse"
      color-interpolation-filters="sRGB">
      <feFlood flood-opacity="0" result="BackgroundImageFix" />
      <feBlend mode="normal" in="SourceGraphic" in2="BackgroundImageFix" result="shape" />
      <feGaussianBlur stdDeviation="161" result="effect1_foregroundBlur_10_15" />
    </filter>
  </defs>
</svg>