<svg width="500" height="96" viewBox="0 0 500 96" fill="none" xmlns="http://www.w3.org/2000/svg">
  <path d="M16.64 76.4L49.408 16.112H62.592L29.824 76.4H16.64ZM39.765 76.4L72.533 16.112H85.717L52.949 76.4H39.765Z"
    fill="#BFCC94" />
  <path
    d="M109.517 25.072L104.781 51.888C104.61 52.9973 104.525 53.7653 104.525 54.192C104.525 56.1547 105.08 57.6693 106.189 58.736C107.298 59.76 108.941 60.272 111.117 60.272C113.677 60.272 115.768 59.5467 117.389 58.096C119.01 56.6453 120.056 54.576 120.525 51.888L125.261 25.072H136.205L131.469 51.888C130.744 55.9413 129.293 59.376 127.117 62.192C124.984 64.9653 122.36 67.0347 119.245 68.4C116.173 69.7653 112.824 70.448 109.197 70.448C104.504 70.448 100.706 69.232 97.805 66.8C94.9463 64.368 93.517 60.848 93.517 56.24C93.517 54.8747 93.645 53.424 93.901 51.888L98.573 25.072H109.517ZM176.146 70H165.202L151.826 42.288L146.898 70H135.954L143.89 25.072H154.834L168.21 52.912L173.138 25.072H184.082L176.146 70ZM202.959 25.072L195.023 70H184.079L192.015 25.072H202.959ZM232.266 47.728L243.21 70H230.474L223.754 56.24L213.258 70H200.842L219.274 47.152L208.458 25.072H221.194L227.85 38.64L238.154 25.072H250.57L232.266 47.728ZM303.773 25.072L302.301 33.712H290.333L283.933 70H272.989L279.389 33.712H267.485L269.021 25.072H303.773ZM320.017 25.072L315.281 51.888C315.11 52.9973 315.025 53.7653 315.025 54.192C315.025 56.1547 315.58 57.6693 316.689 58.736C317.798 59.76 319.441 60.272 321.617 60.272C324.177 60.272 326.268 59.5467 327.889 58.096C329.51 56.6453 330.556 54.576 331.025 51.888L335.761 25.072H346.705L341.969 51.888C341.244 55.9413 339.793 59.376 337.617 62.192C335.484 64.9653 332.86 67.0347 329.745 68.4C326.673 69.7653 323.324 70.448 319.697 70.448C315.004 70.448 311.206 69.232 308.305 66.8C305.446 64.368 304.017 60.848 304.017 56.24C304.017 54.8747 304.145 53.424 304.401 51.888L309.073 25.072H320.017ZM386.71 25.072L385.238 33.712H373.27L366.87 70H355.926L362.326 33.712H350.422L351.958 25.072H386.71ZM405.643 70.448C401.845 70.448 398.496 69.6587 395.595 68.08C392.736 66.5013 390.517 64.2827 388.939 61.424C387.36 58.5653 386.571 55.28 386.571 51.568C386.571 46.32 387.701 41.648 389.963 37.552C392.224 33.4133 395.36 30.192 399.371 27.888C403.424 25.584 408.011 24.432 413.131 24.432C416.971 24.432 420.341 25.2213 423.243 26.8C426.144 28.336 428.384 30.5333 429.963 33.392C431.541 36.208 432.331 39.4507 432.331 43.12C432.331 48.368 431.2 53.0827 428.939 57.264C426.677 61.4027 423.52 64.6453 419.467 66.992C415.413 69.296 410.805 70.448 405.643 70.448ZM407.307 60.336C410.123 60.336 412.597 59.6107 414.731 58.16C416.864 56.7093 418.507 54.768 419.659 52.336C420.853 49.8613 421.451 47.1947 421.451 44.336C421.451 41.264 420.597 38.8533 418.891 37.104C417.184 35.3547 414.795 34.48 411.723 34.48C408.907 34.48 406.411 35.2053 404.235 36.656C402.101 38.1067 400.437 40.048 399.243 42.48C398.091 44.8693 397.515 47.5147 397.515 50.416C397.515 53.488 398.368 55.92 400.075 57.712C401.781 59.4613 404.192 60.336 407.307 60.336ZM460.883 25.072C465.534 25.072 469.075 26.1387 471.507 28.272C473.939 30.3627 475.155 33.0933 475.155 36.464C475.155 37.4453 475.07 38.3627 474.899 39.216C474.387 42.2027 473.086 44.8693 470.995 47.216C468.904 49.5627 466.11 51.2267 462.611 52.208L469.843 70H457.491L451.155 53.04H448.531L445.523 70H434.579L442.515 25.072H460.883ZM463.699 39.664C463.784 38.9813 463.827 38.5333 463.827 38.32C463.827 36.9547 463.379 35.9093 462.483 35.184C461.63 34.416 460.35 34.032 458.643 34.032H451.859L449.875 45.296H456.659C458.664 45.296 460.243 44.8053 461.395 43.824C462.59 42.8427 463.358 41.456 463.699 39.664Z"
    fill="#E3E3F2" />
</svg>